<mxfile host="app.diagrams.net" modified="2023-02-13T09:51:56.577Z" agent="5.0 (Macintosh; Intel Mac OS X 10_15_7) AppleWebKit/537.36 (KHTML, like Gecko) Chrome/109.0.0.0 Safari/537.36" etag="oMa5o-A8GjFohgcEKJ2G" version="20.8.20" type="github">
  <diagram name="Side-1" id="KQx09Oyef7MA_3JhboBp">
    <mxGraphModel dx="1195" dy="587" grid="1" gridSize="10" guides="1" tooltips="1" connect="1" arrows="1" fold="1" page="1" pageScale="1" pageWidth="827" pageHeight="1169" math="0" shadow="0">
      <root>
        <mxCell id="0" />
        <mxCell id="1" parent="0" />
        <mxCell id="5iTLowayFXJTwSd60uX2-2" value="" style="edgeStyle=orthogonalEdgeStyle;rounded=0;orthogonalLoop=1;jettySize=auto;html=1;" edge="1" parent="1" source="TZalHIVMR8zHcpK0or4T-4" target="5iTLowayFXJTwSd60uX2-1">
          <mxGeometry relative="1" as="geometry" />
        </mxCell>
        <mxCell id="TZalHIVMR8zHcpK0or4T-4" value="initApp()" style="rounded=0;whiteSpace=wrap;html=1;glass=0;shadow=0;" parent="1" vertex="1">
          <mxGeometry x="120" y="50" width="120" height="60" as="geometry" />
        </mxCell>
        <mxCell id="5iTLowayFXJTwSd60uX2-9" value="" style="edgeStyle=orthogonalEdgeStyle;rounded=0;orthogonalLoop=1;jettySize=auto;html=1;" edge="1" parent="1" source="5iTLowayFXJTwSd60uX2-1" target="5iTLowayFXJTwSd60uX2-8">
          <mxGeometry relative="1" as="geometry" />
        </mxCell>
        <mxCell id="5iTLowayFXJTwSd60uX2-1" value="fetchData()" style="rounded=0;whiteSpace=wrap;html=1;" vertex="1" parent="1">
          <mxGeometry x="120" y="190" width="120" height="60" as="geometry" />
        </mxCell>
        <mxCell id="5iTLowayFXJTwSd60uX2-20" style="edgeStyle=orthogonalEdgeStyle;rounded=0;orthogonalLoop=1;jettySize=auto;html=1;exitX=0;exitY=0.5;exitDx=0;exitDy=0;entryX=1;entryY=0.5;entryDx=0;entryDy=0;shape=link;" edge="1" parent="1" source="5iTLowayFXJTwSd60uX2-5" target="TZalHIVMR8zHcpK0or4T-4">
          <mxGeometry relative="1" as="geometry">
            <Array as="points">
              <mxPoint x="350" y="80" />
            </Array>
          </mxGeometry>
        </mxCell>
        <mxCell id="5iTLowayFXJTwSd60uX2-5" value="SÃ¦t innertext til &quot;loading&quot;" style="text;html=1;strokeColor=none;fillColor=none;align=center;verticalAlign=middle;whiteSpace=wrap;rounded=0;" vertex="1" parent="1">
          <mxGeometry x="350" y="50" width="170" height="30" as="geometry" />
        </mxCell>
        <mxCell id="5iTLowayFXJTwSd60uX2-6" value="Start fetchData()" style="text;html=1;strokeColor=none;fillColor=none;align=center;verticalAlign=middle;whiteSpace=wrap;rounded=0;" vertex="1" parent="1">
          <mxGeometry x="355" y="80" width="120" height="30" as="geometry" />
        </mxCell>
        <mxCell id="5iTLowayFXJTwSd60uX2-18" style="edgeStyle=orthogonalEdgeStyle;rounded=0;orthogonalLoop=1;jettySize=auto;html=1;exitX=0;exitY=0.5;exitDx=0;exitDy=0;entryX=1;entryY=0.5;entryDx=0;entryDy=0;shape=link;" edge="1" parent="1" source="5iTLowayFXJTwSd60uX2-7" target="5iTLowayFXJTwSd60uX2-1">
          <mxGeometry relative="1" as="geometry" />
        </mxCell>
        <mxCell id="5iTLowayFXJTwSd60uX2-7" value="Hent data&lt;br&gt;Kald intiGallery() med data" style="text;html=1;strokeColor=none;fillColor=none;align=center;verticalAlign=middle;whiteSpace=wrap;rounded=0;" vertex="1" parent="1">
          <mxGeometry x="330" y="205" width="170" height="30" as="geometry" />
        </mxCell>
        <mxCell id="5iTLowayFXJTwSd60uX2-17" value="" style="edgeStyle=orthogonalEdgeStyle;rounded=0;orthogonalLoop=1;jettySize=auto;html=1;" edge="1" parent="1" source="5iTLowayFXJTwSd60uX2-8" target="5iTLowayFXJTwSd60uX2-16">
          <mxGeometry relative="1" as="geometry" />
        </mxCell>
        <mxCell id="5iTLowayFXJTwSd60uX2-8" value="initGallery()" style="rounded=0;whiteSpace=wrap;html=1;" vertex="1" parent="1">
          <mxGeometry x="120" y="330" width="120" height="60" as="geometry" />
        </mxCell>
        <mxCell id="5iTLowayFXJTwSd60uX2-10" value="Loop over data, kald createCard() for hver" style="text;html=1;strokeColor=none;fillColor=none;align=center;verticalAlign=middle;whiteSpace=wrap;rounded=0;" vertex="1" parent="1">
          <mxGeometry x="280" y="320" width="170" height="30" as="geometry" />
        </mxCell>
        <mxCell id="5iTLowayFXJTwSd60uX2-21" style="edgeStyle=orthogonalEdgeStyle;shape=link;rounded=0;orthogonalLoop=1;jettySize=auto;html=1;exitX=0.5;exitY=0;exitDx=0;exitDy=0;" edge="1" parent="1" source="5iTLowayFXJTwSd60uX2-11" target="5iTLowayFXJTwSd60uX2-8">
          <mxGeometry relative="1" as="geometry" />
        </mxCell>
        <mxCell id="5iTLowayFXJTwSd60uX2-11" value="Fjern innertext for app" style="text;html=1;strokeColor=none;fillColor=none;align=center;verticalAlign=middle;whiteSpace=wrap;rounded=0;" vertex="1" parent="1">
          <mxGeometry x="130" y="430" width="100" height="30" as="geometry" />
        </mxCell>
        <mxCell id="5iTLowayFXJTwSd60uX2-16" value="createCard()" style="rounded=0;whiteSpace=wrap;html=1;" vertex="1" parent="1">
          <mxGeometry x="500" y="330" width="120" height="60" as="geometry" />
        </mxCell>
      </root>
    </mxGraphModel>
  </diagram>
</mxfile>
